%
M48
M72
T01C0.0236
T02C0.0315
T03C0.0354
T04C0.0394
%
T01
X1883Y1532
X4127Y1492
X4875Y1177
X7040Y1335
X9796Y1492
X7040Y3264
X5465Y2949
X7316Y5036
X6213Y5469
X5820Y5784
X8969Y6374
X10899Y5114
X12080Y3854
X3930Y8185
X4836Y9839
X5741Y9957
X6962Y9839
X7710Y10429
X8182Y10705
X8733Y11295
X11135Y12122
X12906Y10075
X12080Y9288
X13182Y9169
X10899Y8736
X7788Y9327
X4245Y10823
T02
X7749Y11886
T03
X6568Y11728
X5387Y11728
T04
X4182Y7465
X3182Y7465
X2182Y7465
X2182Y6465
X3182Y6465
X4182Y6465
X4182Y5378
X3182Y5378
X2182Y5378
X2182Y4378
X3182Y4378
X4182Y4378
X4182Y3291
X3182Y3291
X2182Y3291
X2182Y2291
X3182Y2291
X4182Y2291
X9060Y2264
X10060Y2264
X10060Y3264
X9060Y3264
X9060Y4264
X10060Y4264
M30
